<svg id="danger_wheelchair" data-name="danger_wheelchair" xmlns="http://www.w3.org/2000/svg" width="88" height="78.2564" viewBox="0 0 88 78.2564"><title>danger_wheelchair</title><path d="M75.31,78.2769h20.1L103.68,97.3591c3.5027-1.3536,6.9237-2.6674,10.3318-4.014.1989-.0786.4643-.4894.4086-.633-.4721-1.2161-1.0116-2.4059-1.5466-3.64l-6.0345,2.1329c-.6308-1.4773-5.6469-12.8762-7.4646-17.151a1.3484,1.3484,0,0,0-1.4781-.9923c-5.33.03-17.0139.0751-17.5972.11l-.242-3.3126H93.5791c0-1.501-.0446-2.8862.0173-4.2666.0354-.7887-.2408-.98-.9939-.974-4.0972.033-12.8207-.0085-13.0576-.0194l-.64-10.625A5.652,5.652,0,0,0,82.7419,51.66a5.0657,5.0657,0,0,0,.5446-5.4638,5.4357,5.4357,0,0,0-4.9693-3.1864c-3.6735-.1742-6.9064,4.1075-5.12,7.576a2.6692,2.6692,0,0,1,.2533.9647C73.6923,54.2232,75.1564,75.5948,75.31,78.2769Zm20.329,6.9642a26.2675,26.2675,0,0,1-1.05,3.3992A14.5144,14.5144,0,0,1,84.33,97.7825a14.4245,14.4245,0,0,1-17.7667-16,13.72,13.72,0,0,1,5.1142-9.0548,9.5613,9.5613,0,0,1,1.48-1.048s-.46-6.3074-.5357-6.2667c-7.1564,3.8478-11.6356,9.97-11.7695,18.3243a18.934,18.934,0,0,0,3.73,11.7179,19.6071,19.6071,0,0,0,10.3248,7.4187,19.9566,19.9566,0,0,0,11.0438.2524A21.61,21.61,0,0,0,99.12,93.0463ZM39.0706,97.0651,75.3541,34.22a7.2058,7.2058,0,0,1,12.4808,0l36.2834,62.8448a7.2057,7.2057,0,0,1-6.24,10.8087H45.311A7.2058,7.2058,0,0,1,39.0706,97.0651Z" transform="translate(-37.5945 -30.1174)" stroke="#fff" stroke-miterlimit="10"/></svg>