<?xml version="1.0" encoding="utf-8"?>
<svg version="1.1"
	 id="svg4264" inkscape:version="0.91 r13725" sodipodi:docname="way_unclassified.svg" xmlns:cc="http://creativecommons.org/ns#" xmlns:dc="http://purl.org/dc/elements/1.1/" xmlns:inkscape="http://www.inkscape.org/namespaces/inkscape" xmlns:rdf="http://www.w3.org/1999/02/22-rdf-syntax-ns#" xmlns:sodipodi="http://sodipodi.sourceforge.net/DTD/sodipodi-0.dtd" xmlns:svg="http://www.w3.org/2000/svg"
	 xmlns="http://www.w3.org/2000/svg" xmlns:xlink="http://www.w3.org/1999/xlink" x="0px" y="0px" viewBox="0 0 11.4 12.8"
	 style="enable-background:new 0 0 11.4 12.8;" xml:space="preserve">
<style type="text/css">
	.st0{fill:none;stroke:#000000;stroke-width:0.5;}
	.st1{fill:#808080;}
	.st2{fill:none;stroke:#000000;stroke-width:0.25;stroke-miterlimit:10;}
</style>
<g id="layer1" transform="translate(0,-988.36218)" inkscape:groupmode="layer" inkscape:label="Ebene 1">
	<path id="path3596" class="st0" d="M1,995.7l5.6-5.4"/>
	<path id="path3598" class="st0" d="M2,996.5l5.6-5.4"/>
	<path id="path3600" class="st0" d="M2.9,997.5l5.6-5.4"/>
	<path id="path3602" class="st0" d="M3.9,998.3l5.5-5.3"/>
	<path id="path3604" class="st0" d="M4.9,999.2l5.5-5.2"/>
	<path id="path3606" class="st0" d="M2.8,991.9l5.6,5.4"/>
	<path id="path3608" class="st0" d="M1.7,992.9l5.6,5.3"/>
	<path id="path3610" class="st0" d="M0.7,993.9l5.6,5.3"/>
	<path id="path3612" class="st0" d="M3.8,990.9l5.5,5.3"/>
	<path id="path3614" class="st0" d="M4.9,989.9l5.5,5.2"/>
</g>
<path class="st1" d="M0,0h11.4v12.8H0V0z M9.3,6.4c0-1.9-1.6-3.5-3.6-3.5S2.1,4.5,2.1,6.4s1.6,3.5,3.6,3.5S9.3,8.3,9.3,6.4z"/>
<path class="st2" d="M9.3,6.4c0-1.9-1.6-3.5-3.6-3.5S2.1,4.5,2.1,6.4s1.6,3.5,3.6,3.5S9.3,8.3,9.3,6.4z"/>
</svg>
