<?xml version="1.0" encoding="utf-8"?>
<svg version="1.1"
	 id="kerb" xmlns:cc="http://creativecommons.org/ns#" xmlns:dc="http://purl.org/dc/elements/1.1/" xmlns:rdf="http://www.w3.org/1999/02/22-rdf-syntax-ns#"
	 xmlns="http://www.w3.org/2000/svg" xmlns:xlink="http://www.w3.org/1999/xlink" x="0px" y="0px" viewBox="0 0 34.5 34.5"
	 style="enable-background:new 0 0 34.5 34.5;" xml:space="preserve">
<style type="text/css">
	.st0{fill:#80C41C;}
	.st1{fill:#669D16;}
	.st2{fill:#649023;}
	.st3{fill:#4B2500;stroke:#110400;stroke-linecap:round;stroke-miterlimit:10;}
</style>
<path class="st0" d="M26.7,17c1.4-2-1.1-1.9,0.1-3.8c1.2-1.9-1.4-1.5-1-3.5c0.5-2.1-1.5-0.8-1.5-2.9C24.4,4.5,22,7.2,22,4.8
	S20.2,4.9,20,2.9c-0.3-1.9-2-0.1-3.3-0.9c-1.3-0.8-1.8,1.6-3.3,1.4c-1.5-0.3-1.3,2.2-2.9,2.2s-0.1,2.4-1.7,2.7
	C7.2,8.6,8.5,10.3,7.2,11c-1.2,0.7,0.9,2-0.5,3.3c-1.4,1.3,1,2,0.2,3.6c-0.8,1.6,1.5,1.5,0.7,2.9c0,0-1.6,1.6,0.3,2.8
	c0,0,0,0.2,0,0.6c0.1,0.7,0.6,1.8,2.2,1.5c0,0,1.4,2.4,3.8,0.9c0,0,1.7,1.5,3.2,0c0,0,0.1-0.1,0.1-0.1c0,0,0.1,0.1,0.2,0.1
	c0.5,0.3,1.9,1.2,3-0.3c0,0,0.1-0.1,0.1-0.1c0,0,0.1,0,0.2,0.1c0.5,0.2,2.2,0.8,2.6-1c0,0,1.6,0.6,1.6-1.2c0,0,0.2,0,0.4,0
	c0.4-0.1,1.1-0.5,0.9-1.8c0-0.1,0-0.2-0.1-0.4v0c-0.2-0.4-0.5-1,0.4-1.8C28.1,18.7,25.3,19,26.7,17z"/>
<path class="st1" d="M5,23.9c0,0-1.4,1.4,0.3,2.4c0,0,0,0.2,0,0.5c0.1,0.6,0.5,1.5,1.9,1.3c0,0,1.2,2,3.2,0.8c0,0,1.4,1.3,2.7,0
	c0,0,0.1-0.1,0.1-0.1c0,0,0.1,0,0.1,0.1c0.4,0.3,1.6,1,2.5-0.2c0,0,0.1-0.1,0.1-0.1c0,0,0.1,0,0.2,0.1c0.5,0.2,1.8,0.7,2.2-0.8
	c0,0,1.3,0.6,1.4-1.1c0,0,0.1,0,0.3,0c0.4-0.1,1-0.4,0.8-1.5c0-0.1,0-0.2-0.1-0.3v0c-0.2-0.4-0.4-0.8,0.3-1.5
	c1.4-1.2-1.1-0.9,0.1-2.6c1.2-1.7-0.9-1.6,0.1-3.2c1-1.6-1.2-1.2-0.8-3c0.4-1.7-1.3-0.6-1.3-2.5c0-1.8-2,0.4-2-1.6s-1.5,0.1-1.7-1.5
	c-0.2-1.6-1.7-0.1-2.8-0.7C11.6,7.2,11.2,9.3,9.9,9c-1.3-0.2-1.1,1.8-2.5,1.8s-0.1,2-1.4,2.3c-1.3,0.3-0.2,1.7-1.3,2.3"/>
<path class="st2" d="M28.3,13.4c0-2.1-1.5,0.1-1.7-1.5c-0.2-1.6-1.7-0.1-2.8-0.7c-1.1-0.6-1.5,1.4-2.8,1.1c-1.3-0.2-1.1,1.8-2.5,1.8
	s-0.1,2-1.4,2.3c-1.3,0.3-0.2,1.7-1.3,2.3c-1,0.6,13.4,1.7,12.2,2.8"/>
<path class="st3" d="M5.4,14L4.9,27.5c0,2.4,5.5,4,12.5,4c8.9-0.3,11.9-1.7,12.3-4.2l-1.2-13.7c0,0-0.1,0-0.1,0
	c-0.2,2.2-2.2,4.3-10.6,4.5C10.9,18,5.4,16.4,5.4,14"/>
</svg>
