<?xml version="1.0" encoding="utf-8"?>
<svg version="1.1" id="Livello_1" xmlns="http://www.w3.org/2000/svg" xmlns:xlink="http://www.w3.org/1999/xlink" x="0px" y="0px"
	 viewBox="0 0 462.2 590.7" style="enable-background:new 0 0 462.2 590.7;" xml:space="preserve">
<path d="M417,320.5c18.5,0,33.5-15,33.5-33.5c0-18.5-15-33.5-33.5-33.5c-18.5,0-33.5,15-33.5,33.5
	C383.5,305.5,398.5,320.5,417,320.5z"/>
<path d="M454,406.2c-4-4.1-9.7-6.3-15.4-6l-69.7,3.9l38.4-43.7c5.5-6.2,7-14.5,4.9-21.9c-1.1-5.1-4.2-9.7-8.9-12.7
	c-0.1-0.1-91.7-53.3-91.7-53.3c-7.5-4.3-16.9-3.4-23.4,2.4l-44.7,39.9c-8.2,7.4-9,20-1.6,28.2c7.4,8.2,20,9,28.2,1.6l33.9-30.2
	l28,16.3l-49.5,56.4c-20.5,3.3-39,12.8-53.5,26.4l25.8,25.8c11.7-10.6,27.2-17.1,44.2-17.1c36.3,0,65.7,29.5,65.7,65.7
	c0,17-6.5,32.5-17.1,44.2l25.8,25.8c17.2-18.3,27.8-42.9,27.8-70c0-16.1-3.7-31.4-10.4-45l27-1.5l-6.6,80.5
	c-0.9,11,7.3,20.7,18.3,21.6c0.6,0,1.1,0.1,1.6,0.1c10.3,0,19.1-7.9,19.9-18.4l8.4-103.4C460.1,416,458.1,410.3,454,406.2z"/>
<path d="M299.1,553.6c-36.3,0-65.7-29.5-65.7-65.7c0-13.7,4.2-26.4,11.4-36.9l-26.1-26.1c-13.6,17.4-21.7,39.2-21.7,63
	c0,56.5,45.8,102.3,102.3,102.3c23.8,0,45.6-8.1,63-21.7L336,542.2C325.5,549.4,312.8,553.6,299.1,553.6z"/>
<path d="M84.2,274.3v147.5H0V0.1C0.5,0.1,1,0,1.6,0c69.1,0,138.2,0,207.3,0c20.7,0,40.6,3.9,59.3,12.9
	c28.2,13.6,47.7,35.4,59.1,64.6c4.9,12.9,8,26.4,9.3,40.2c1.2,12.1,1.3,24.2,0.2,36.3c-2,22.7-8,44.2-20.7,63.4
	c-12.4,18.8-29.2,32.4-49.6,41.8c-14.2,6.4-29.3,10.7-44.7,12.8c-11,1.6-22.1,2.3-33.3,2.3c-34,0-68,0-102.1,0L84.2,274.3z
	 M84.3,189.8H86c34.8,0,69.5,0,104.3,0c11.4,0.1,22.6-2.3,32.9-7.2c19.2-9.3,31.9-27.6,29.6-51c-1.7-17.4-10.3-30.5-25.6-38.9
	c-11.3-6.2-23.7-8.3-36.5-8.4c-34.9-0.1-69.8-0.1-104.8,0c-0.5,0-1,0-1.6,0.1L84.3,189.8z"/>
</svg>
